<svg width="428" height="552" viewBox="0 0 428 552" fill="none" xmlns="http://www.w3.org/2000/svg">
<path fill-rule="evenodd" clip-rule="evenodd" d="M187.075 123.334C187.075 123.334 173.567 121.749 169.997 133.308C156.906 137.163 160.478 148.723 160.478 148.723C160.478 148.723 153.902 157.804 166.963 162.457C168.007 171.761 181.068 170.069 181.068 170.069C181.068 170.069 184.203 177.26 194.129 174.298C204.838 181.042 225.021 179.689 232.188 171.445C246.398 180.032 271.123 169.55 268.021 161.711C284.617 160.897 292.663 146.647 282.939 134.543C290.409 124.968 281.893 119.317 281.893 119.317C281.893 119.317 284.244 97.3236 265.438 94.3635C255.773 82.5209 234.877 92.0368 234.877 92.0368C234.877 92.0368 221.032 89.7111 216.069 99.4381C200.6 101.365 201.326 108.25 200.136 114.03C186.292 114.664 187.075 123.334 187.075 123.334Z" fill="#18191A"/>
<path fill-rule="evenodd" clip-rule="evenodd" d="M230.001 112.596C240.846 114.137 244.144 107.493 244.144 107.493C244.144 107.493 248.619 98.1347 249.766 103.879C250.374 106.933 256.205 102.882 258.886 106.136C260.69 108.327 256.18 111.15 262.042 116.991C265.439 120.374 252.041 123.074 260.306 129.311C260.306 129.311 254.429 136.923 264.523 139.406L265.593 148.333C266.216 153.528 261.167 158.024 254.72 158.016C248.574 158.007 243.648 153.891 243.834 148.917L244.241 138.034C228.57 138.034 227.805 120.595 230.001 112.596Z" fill="#FFC999"/>
<path d="M249.012 121.879C249.283 121.659 249.724 121.659 249.996 121.879C250.268 122.099 250.268 122.455 249.996 122.676C249.643 122.961 249.004 123.37 248.106 123.775C246.335 124.572 244.303 124.987 242.066 124.811C241.684 124.781 241.404 124.506 241.441 124.196C241.478 123.887 241.818 123.66 242.201 123.69C244.134 123.842 245.89 123.483 247.429 122.79C247.883 122.585 248.283 122.367 248.623 122.149L248.799 122.033C248.901 121.964 248.972 121.911 249.012 121.879Z" fill="#F5222D"/>
<path d="M240.987 113.638L240.986 113.487C241.007 113.295 241.198 113.138 241.443 113.124C241.689 113.11 241.905 113.243 241.96 113.431L241.973 113.512L241.974 113.53C241.991 113.915 241.905 114.504 241.631 115.27C241.265 116.296 240.631 117.418 239.674 118.62L239.501 118.831L239.777 118.969L240.446 119.299C241.094 119.615 241.68 119.889 242.206 120.126L242.464 120.241C242.722 120.355 242.949 120.452 243.145 120.534L243.545 120.695C243.793 120.788 243.901 121.026 243.787 121.227C243.673 121.427 243.379 121.515 243.131 121.423L242.92 121.34L242.535 121.18C242.425 121.134 242.308 121.083 242.183 121.029L241.989 120.944C241.045 120.526 239.897 119.98 238.541 119.291C238.301 119.169 238.236 118.91 238.398 118.722C239.556 117.378 240.289 116.146 240.681 115.048C240.905 114.421 240.985 113.946 240.987 113.638Z" fill="#DD936F"/>
<path d="M256.094 113.018C256.464 113.018 256.763 113.26 256.763 113.559C256.763 115.641 254.826 117.347 252.408 117.347C249.99 117.347 248.054 115.641 248.054 113.559C248.054 113.26 248.353 113.018 248.723 113.018C249.092 113.018 249.392 113.26 249.392 113.559C249.392 115.063 250.755 116.264 252.408 116.264C254.061 116.264 255.425 115.062 255.425 113.559C255.425 113.26 255.725 113.018 256.094 113.018Z" fill="#253368"/>
<path d="M238.468 113.39C238.819 113.39 239.104 113.62 239.104 113.904C239.104 115.961 237.363 117.664 235.152 117.664C232.94 117.664 231.2 115.961 231.2 113.904C231.2 113.62 231.484 113.39 231.835 113.39C232.186 113.39 232.47 113.62 232.47 113.904C232.47 115.432 233.7 116.636 235.152 116.636C236.603 116.636 237.833 115.432 237.833 113.904C237.833 113.62 238.118 113.39 238.468 113.39Z" fill="#253368"/>
<path d="M248.468 107.06C251.025 106.395 253.729 106.307 256.284 107.179C256.754 107.34 257.213 107.532 257.657 107.757C257.97 107.915 258.066 108.249 257.87 108.503C257.674 108.757 257.261 108.834 256.948 108.675C256.564 108.481 256.169 108.315 255.764 108.177C253.548 107.421 251.156 107.498 248.877 108.091C248.589 108.166 248.323 108.245 248.08 108.324L247.846 108.404C247.669 108.466 247.549 108.513 247.493 108.537C247.166 108.676 246.762 108.575 246.589 108.31C246.417 108.046 246.542 107.718 246.869 107.579C247.183 107.444 247.733 107.251 248.468 107.06Z" fill="#253368"/>
<path d="M253.609 135.713C253.849 135.607 254.149 135.679 254.28 135.873C254.41 136.067 254.322 136.311 254.082 136.416C250.901 137.818 247.592 138.525 244.263 138.561C243.99 138.564 243.766 138.387 243.762 138.166C243.758 137.945 243.977 137.763 244.25 137.76C247.417 137.725 250.569 137.053 253.609 135.713Z" fill="#DD936F"/>
<path fill-rule="evenodd" clip-rule="evenodd" d="M215.997 235.042C208.761 234.176 203.76 228.725 204.83 222.867L215.244 165.779C216.312 159.92 223.044 155.872 230.282 156.737C237.517 157.603 242.516 163.053 241.449 168.912L231.034 226.001C229.966 231.859 223.233 235.906 215.997 235.042Z" fill="#FFC999"/>
<path fill-rule="evenodd" clip-rule="evenodd" d="M237.033 193.112L241.448 168.911C242.513 163.077 237.487 157.598 230.281 156.737C223.075 155.876 216.309 159.944 215.244 165.778L210.87 189.749L237.033 193.112Z" fill="#BCBEC6"/>
<path d="M230.717 156.463C238.055 157.341 243.196 162.861 242.258 168.792L242.222 169.004L237.806 193.205C237.777 193.363 237.612 193.477 237.421 193.481L237.349 193.477L211.187 190.114C210.97 190.086 210.822 189.92 210.856 189.744C210.887 189.588 211.052 189.475 211.241 189.472L211.312 189.476L237.075 192.787L241.433 168.91C242.452 163.323 237.711 158.071 230.862 157.135L230.601 157.102C230.383 157.076 230.232 156.912 230.265 156.735C230.293 156.579 230.457 156.465 230.646 156.46L230.717 156.463Z" fill="#4E5C93"/>
<path fill-rule="evenodd" clip-rule="evenodd" d="M169.822 216.231C169.718 218.325 171.665 220.113 174.242 220.292L223.994 223.76C228.579 223.956 232.48 221.081 232.664 217.366C232.852 213.619 229.188 210.484 224.556 210.426L174.412 212.477C171.913 212.58 169.923 214.207 169.822 216.231Z" fill="#FFC999"/>
<path fill-rule="evenodd" clip-rule="evenodd" d="M164.948 210.928C164.948 210.928 173.885 210.355 176.172 214.212C178.245 217.705 174.191 219.799 174.191 219.799C174.191 219.799 170.566 222.397 165.479 223.816C162.127 224.75 155.529 226.004 154.685 224.644C153.584 222.872 161.154 221.805 160.872 220.381C160.583 218.918 158.999 219.045 155.279 218.373C152.956 217.953 150.461 218.28 148.574 217.62C144.887 216.33 151.456 210.883 164.948 210.928Z" fill="#FFC999"/>
<path d="M149.065 215.69C152.404 215.029 155.423 215.141 157.984 215.729C158.447 215.836 158.856 215.95 159.208 216.065L159.435 216.142C159.533 216.177 159.608 216.206 159.658 216.226C159.901 216.327 159.997 216.569 159.872 216.765C159.748 216.962 159.449 217.04 159.206 216.939L159.032 216.873C158.977 216.854 158.912 216.832 158.837 216.808C158.518 216.703 158.142 216.598 157.714 216.5C155.31 215.948 152.463 215.842 149.3 216.468C149.035 216.521 148.767 216.389 148.702 216.174C148.637 215.959 148.8 215.743 149.065 215.69Z" fill="#DD936F"/>
<path d="M152.999 213.466C155.464 213.139 158.142 213.151 160.729 213.734C160.993 213.793 161.147 214.014 161.074 214.227C161 214.44 160.728 214.564 160.465 214.505C158.034 213.958 155.494 213.947 153.159 214.256C152.914 214.289 152.688 214.323 152.483 214.358L152.285 214.392C152.136 214.42 152.034 214.44 151.984 214.452C151.721 214.511 151.448 214.386 151.376 214.172C151.303 213.959 151.457 213.739 151.72 213.68L151.974 213.628L152.068 213.611C152.34 213.561 152.652 213.512 152.999 213.466Z" fill="#DD936F"/>
<path d="M155.507 211.678C158.187 211.434 160.381 211.507 162.093 211.778L162.461 211.841C162.859 211.914 163.14 211.984 163.308 212.037C163.562 212.119 163.687 212.351 163.586 212.557C163.486 212.763 163.199 212.864 162.945 212.783L162.811 212.744C162.622 212.695 162.319 212.63 161.903 212.564C160.29 212.308 158.197 212.239 155.618 212.474C155.347 212.499 155.102 212.341 155.071 212.121C155.041 211.901 155.236 211.703 155.507 211.678Z" fill="#DD936F"/>
<path fill-rule="evenodd" clip-rule="evenodd" d="M143.97 391.389L112.816 294.385C110.571 287.397 115.957 280.3 124.671 278.762C133.385 277.224 141.93 281.862 143.481 288.973L163.246 388.342C164.252 392.956 162.358 396.723 156.701 397.721C151.046 398.719 145.427 395.924 143.97 391.389Z" fill="#FFC999"/>
<path fill-rule="evenodd" clip-rule="evenodd" d="M246.75 244.185C242.167 236.529 230.696 233.43 221.352 237.323L120.885 279.167C113.147 282.391 110 290.024 113.797 296.363C117.593 302.703 126.944 305.432 134.863 302.51L237.673 264.578C247.235 261.051 251.334 251.841 246.75 244.185Z" fill="#FFC999"/>
<path fill-rule="evenodd" clip-rule="evenodd" d="M146.385 398.974L165.689 396.075L161.111 371.193L138.948 374.52L146.385 398.974Z" fill="#597EF7"/>
<path d="M160.658 375.831C161.008 375.778 161.345 375.965 161.41 376.248C161.469 376.508 161.28 376.759 160.978 376.839L160.893 376.857L140.433 379.93C140.083 379.982 139.747 379.795 139.682 379.512C139.623 379.252 139.812 379.001 140.113 378.921L140.198 378.903L160.658 375.831Z" fill="#E4EBF7"/>
<path fill-rule="evenodd" clip-rule="evenodd" d="M144.237 398.289L165.46 395.102L173.745 426.414L125.925 433.596L124.7 428.782C124.257 427.01 125.446 425.237 127.521 424.573L139.523 419.645L145.357 415.659C147.115 414.458 147.915 412.579 147.436 410.758C146.405 406.845 144.671 400.206 144.237 398.289Z" fill="#4E5C93"/>
<path fill-rule="evenodd" clip-rule="evenodd" d="M173.519 427.51L125.843 434.669C125.39 434.737 124.956 434.496 124.872 434.129L123.88 429.801C123.798 429.435 124.095 429.084 124.548 429.016L172.224 421.856C172.675 421.788 173.11 422.03 173.193 422.395L174.185 426.724C174.269 427.09 173.97 427.441 173.519 427.51Z" fill="#CCD7EE"/>
<path fill-rule="evenodd" clip-rule="evenodd" d="M124.548 429.016C123.922 426.287 125.834 423.595 129.062 422.66L139.519 419.63L141.793 426.327L124.548 429.016Z" fill="#CCD7EE"/>
<path d="M172.163 421.594C172.342 421.567 172.514 421.663 172.547 421.808C172.576 421.935 172.489 422.057 172.347 422.104L172.283 422.119L124.608 429.279C124.429 429.306 124.257 429.21 124.224 429.065C124.195 428.938 124.282 428.815 124.424 428.769L124.488 428.754L172.163 421.594Z" fill="#A3B5D6"/>
<path d="M147.401 409.126L147.594 409.134C147.65 409.136 147.714 409.14 147.785 409.145C148.077 409.164 148.401 409.196 148.75 409.241C149.746 409.37 150.743 409.587 151.681 409.915C152.432 410.178 153.114 410.502 153.709 410.895C154.134 411.176 153.958 411.731 153.419 411.812C152.893 411.891 152.127 412.092 151.192 412.386L150.933 412.469C150.665 412.555 150.388 412.648 150.102 412.746C149.678 412.892 149.25 413.044 148.827 413.199L148.607 413.281L148.663 413.306C149.516 413.69 150.37 414.163 151.184 414.733L151.531 414.983C151.946 415.293 151.704 415.854 151.141 415.887C150.494 415.926 149.753 416.03 148.938 416.194C148.144 416.353 147.299 416.564 146.427 416.814C146.245 416.866 146.064 416.92 145.885 416.973L145.443 417.109L145.577 417.149C145.864 417.239 146.147 417.347 146.424 417.472L146.699 417.604C147.132 417.823 147.536 418.084 147.904 418.391C148.152 418.598 148.146 418.928 147.891 419.129C147.635 419.33 147.227 419.325 146.979 419.118C146.685 418.873 146.363 418.664 146.016 418.489C145.069 418.01 144.104 417.831 143.398 417.817L143.25 417.816L143.162 417.814C142.533 417.768 142.351 417.052 142.958 416.822L143.195 416.735C143.383 416.667 143.597 416.591 143.835 416.51C144.513 416.278 145.242 416.047 145.997 415.83C146.906 415.57 147.79 415.349 148.628 415.181C148.88 415.13 149.126 415.085 149.366 415.045L149.557 415.014L149.367 414.901C149.037 414.709 148.704 414.533 148.37 414.373L148.036 414.217C147.803 414.113 147.584 414.021 147.381 413.942L147.184 413.868C147.034 413.814 146.932 413.78 146.883 413.765C146.353 413.605 146.316 413.009 146.824 412.807L147.44 412.569L147.655 412.487C148.288 412.248 148.948 412.009 149.599 411.785L150.176 411.591C150.27 411.56 150.364 411.529 150.456 411.5L151.002 411.328C151.09 411.301 151.176 411.274 151.262 411.249L151.765 411.104L151.708 411.079L151.443 410.973L151.17 410.873C150.34 410.583 149.443 410.388 148.546 410.271C148.31 410.241 148.087 410.217 147.88 410.2L147.457 410.172C147.419 410.171 147.39 410.17 147.369 410.169C147.014 410.162 146.732 409.923 146.741 409.635C146.749 409.347 147.045 409.119 147.401 409.126Z" fill="#E4EBF7"/>
<path d="M148.621 404.254C147.725 404.317 146.972 404.401 146.42 404.48L146.204 404.513C146.131 404.524 146.062 404.545 145.999 404.575C145.248 404.934 144.886 405.402 145.021 405.928C145.117 406.305 145.437 406.603 145.898 406.867C146.178 407.028 146.452 407.144 146.648 407.212L146.722 407.25L147.402 407.558C147.618 407.655 147.849 407.757 148.093 407.864C149.256 408.372 150.48 408.881 151.709 409.355C152.515 409.667 153.298 409.954 154.049 410.211C156.566 411.073 158.587 411.559 159.992 411.558C162.009 411.558 162.835 410.505 162.028 408.706C160.803 405.977 157.639 404.606 153.283 404.255C151.76 404.133 150.181 404.144 148.621 404.254ZM153.155 405.294C156.968 405.6 159.652 406.728 160.732 408.886L160.816 409.063C161.328 410.203 161.083 410.515 159.992 410.515C158.81 410.515 156.917 410.06 154.551 409.25C153.819 408.999 153.054 408.719 152.264 408.414C151.056 407.947 149.85 407.446 148.706 406.946L148.025 406.645L147.224 406.281C147.036 406.211 146.836 406.127 146.643 406.016C146.425 405.891 146.297 405.772 146.283 405.717L146.283 405.709C146.289 405.688 146.334 405.642 146.49 405.557L146.561 405.52L146.829 405.482C147.324 405.416 147.973 405.347 148.732 405.294C150.218 405.189 151.719 405.178 153.155 405.294Z" fill="#E4EBF7"/>
<path fill-rule="evenodd" clip-rule="evenodd" d="M277.974 253.723C272.842 246.299 261.886 243.425 253.712 247.359L165.838 289.659C159.071 292.916 157.06 300.425 161.309 306.573C165.56 312.721 174.515 315.262 181.486 312.295L271.983 273.792C280.4 270.211 283.105 261.148 277.974 253.723Z" fill="#FFC999"/>
<path fill-rule="evenodd" clip-rule="evenodd" d="M129.059 406.671C123.576 405.172 120.531 400.434 122.164 395.939L157.081 299.778C159.597 292.851 168.724 289.008 177.173 291.317C185.623 293.627 190.004 301.163 186.818 307.906L142.579 401.519C140.511 405.896 134.544 408.17 129.059 406.671Z" fill="#FFC999"/>
<path fill-rule="evenodd" clip-rule="evenodd" d="M119.415 402.912L139.222 409.001L152.016 383.508L129.278 376.517L119.415 402.912Z" fill="#597EF7"/>
<path d="M126.033 383.968C126.147 383.721 126.468 383.585 126.778 383.641L126.862 383.661L146.362 389.547C146.695 389.648 146.865 389.948 146.74 390.218C146.626 390.466 146.305 390.602 145.995 390.545L145.911 390.525L126.412 384.639C126.078 384.539 125.909 384.238 126.033 383.968Z" fill="#E4EBF7"/>
<path fill-rule="evenodd" clip-rule="evenodd" d="M120.895 399.053L141.121 405.158L128.331 435.46L82.7577 421.703L84.7678 417.066C85.5126 415.363 87.658 414.338 89.8599 414.632L103.284 415.404L110.819 414.415C113.088 414.116 114.968 412.838 115.715 411.077C117.319 407.293 120.049 400.876 120.895 399.053Z" fill="#4E5C93"/>
<path fill-rule="evenodd" clip-rule="evenodd" d="M81.6275 422.755C81.1974 422.625 80.9779 422.236 81.1384 421.888L83.0381 417.764C83.1986 417.415 83.6776 417.238 84.1077 417.368L129.543 431.081C129.973 431.211 130.192 431.599 130.032 431.947L128.132 436.073C127.972 436.422 127.493 436.599 127.061 436.469L81.6275 422.755Z" fill="#CCD7EE"/>
<path fill-rule="evenodd" clip-rule="evenodd" d="M83.2718 416.945C84.4693 414.345 89.0737 412.832 92.4354 413.374L102.077 415.13L99.7695 421.82L83.2718 416.945Z" fill="#CCD7EE"/>
<path d="M83.2847 417.232C83.3404 417.111 83.4928 417.042 83.6443 417.061L83.709 417.075L129.142 430.788C129.312 430.84 129.399 430.994 129.336 431.132C129.28 431.253 129.127 431.322 128.976 431.302L128.911 431.289L83.4785 417.575C83.3079 417.524 83.2211 417.37 83.2847 417.232Z" fill="#A3B5D6"/>
<path d="M113.573 412.081C113.831 411.882 114.239 411.889 114.485 412.098L114.612 412.21C114.733 412.32 114.89 412.472 115.072 412.662C115.493 413.101 115.898 413.591 116.254 414.122C116.875 415.047 117.284 415.999 117.405 416.958C117.46 417.4 116.851 417.692 116.399 417.441C115.884 417.155 114.996 416.8 113.852 416.41C113.3 416.221 112.714 416.033 112.117 415.85L111.712 415.727L111.744 415.813C111.814 416.013 111.88 416.222 111.94 416.439L112.026 416.771C112.17 417.363 112.263 417.977 112.296 418.605C112.32 419.062 111.658 419.321 111.231 419.022C110.59 418.574 109.741 418.118 108.731 417.664C108.083 417.373 107.395 417.094 106.69 416.831L106.129 416.626L106.181 416.715C106.521 417.33 106.724 417.996 106.752 418.703L106.755 418.941C106.75 419.229 106.458 419.46 106.102 419.456C105.746 419.452 105.461 419.216 105.466 418.928C105.477 418.225 105.273 417.572 104.908 416.973C104.716 416.66 104.493 416.382 104.258 416.144L104.133 416.021C104.057 415.95 103.999 415.9 103.963 415.874C103.453 415.486 103.966 414.81 104.624 415.003L105.044 415.131L105.561 415.298C105.742 415.357 105.93 415.421 106.125 415.488C107.239 415.871 108.341 416.295 109.356 416.751C109.837 416.967 110.285 417.185 110.698 417.404L110.871 417.497L110.835 417.299L110.761 416.972C110.637 416.458 110.478 415.99 110.304 415.577L110.183 415.306C110.136 415.206 110.097 415.131 110.071 415.084C109.836 414.668 110.329 414.225 110.865 414.373L111.548 414.568C111.681 414.606 111.819 414.647 111.962 414.69C112.781 414.933 113.596 415.19 114.353 415.448C114.822 415.608 115.251 415.763 115.636 415.912L115.847 415.994L115.788 415.844C115.653 415.517 115.482 415.19 115.279 414.864L115.121 414.62C114.801 414.142 114.434 413.698 114.054 413.302L113.873 413.118C113.733 412.979 113.622 412.877 113.552 412.818C113.306 412.61 113.316 412.28 113.573 412.081Z" fill="#E4EBF7"/>
<path d="M116.49 409.359C115.137 409.35 114.525 409.986 114.766 410.848C114.823 411.052 114.923 411.257 115.053 411.462C115.17 411.646 115.287 411.795 115.372 411.89L115.483 412.056L115.911 412.658C116.064 412.87 116.228 413.094 116.401 413.329C117.227 414.445 118.103 415.561 118.991 416.604C119.695 417.431 120.378 418.179 121.032 418.828C122.419 420.205 123.624 421.1 124.669 421.42C126.146 421.874 127.225 421.191 127.612 419.577C128.301 416.706 126.427 414.197 122.867 412.074C121.629 411.336 120.261 410.691 118.853 410.14C118.144 409.863 117.529 409.648 117.055 409.497L116.704 409.39C116.635 409.37 116.563 409.359 116.49 409.359ZM116.224 410.403L116.367 410.402L116.763 410.527C117.181 410.664 117.701 410.848 118.292 411.08C119.633 411.605 120.935 412.218 122.102 412.914C125.305 414.824 126.92 416.987 126.347 419.379C126.097 420.419 125.753 420.637 125.126 420.445C124.357 420.209 123.282 419.411 122.031 418.168C121.401 417.543 120.738 416.818 120.053 416.012C119.182 414.989 118.32 413.891 117.507 412.792L117.024 412.132L116.486 411.372C116.475 411.357 116.466 411.343 116.458 411.331C116.367 411.223 116.284 411.117 116.2 410.985C116.115 410.852 116.053 410.725 116.023 410.617L116.003 410.537C115.982 410.435 116.015 410.409 116.224 410.403Z" fill="#E4EBF7"/>
<path fill-rule="evenodd" clip-rule="evenodd" d="M221.8 170.018C219.528 174.8 215.271 183.048 215.076 188.363C214.758 196.98 222.145 203.004 222.145 203.004C222.145 203.004 222.018 200.481 224.417 222.643C256.327 225.515 276.077 219.722 276.077 219.722L275.004 213.869L279.045 199.699C279.045 199.699 281.756 194.36 287.254 182.478C291.077 174.218 289.993 164.275 288.976 158.981C288.541 156.713 286.427 154.895 283.654 154.414C273.968 152.734 270.36 152.849 270.36 152.849L269.066 147.812C268.847 146.949 267.874 146.351 266.789 146.405L243.589 147.59C242.593 147.641 241.765 148.232 241.578 149.026L240.297 154.481L226.116 157.493C223.891 157.965 222.307 159.56 222.217 161.422L221.8 170.018Z" fill="#BCBEC6"/>
<path d="M263.857 153.124C264.077 153.113 264.266 153.248 264.28 153.426C264.292 153.584 264.162 153.723 263.978 153.76L263.907 153.769L243.018 154.835C242.799 154.847 242.609 154.712 242.595 154.534C242.583 154.375 242.713 154.237 242.897 154.2L242.968 154.191L263.857 153.124Z" fill="#4E5C93"/>
<path d="M270.159 151.451C270.356 151.287 270.68 151.283 270.883 151.442C271.063 151.584 271.087 151.807 270.952 151.97L270.893 152.028L244.355 174.174C244.087 174.397 243.634 174.309 243.508 174.031L243.486 173.969L238.639 154.815C238.582 154.591 238.76 154.372 239.037 154.326C239.286 154.285 239.53 154.398 239.618 154.584L239.641 154.649L244.294 173.035L270.159 151.451Z" fill="#CCD7EE"/>
<path fill-rule="evenodd" clip-rule="evenodd" d="M235.028 177.504C232.959 180.785 234.312 184.698 238.049 186.245C241.789 187.791 246.497 186.384 248.568 183.103C250.639 179.822 249.286 175.909 245.547 174.363C241.807 172.816 237.098 174.223 235.028 177.504Z" fill="#CCD7EE"/>
<path fill-rule="evenodd" clip-rule="evenodd" d="M234.195 177.532C232.125 180.812 233.478 184.726 237.215 186.272C240.956 187.818 245.664 186.412 247.734 183.131C249.805 179.849 248.452 175.936 244.714 174.39C240.973 172.844 236.264 174.251 234.195 177.532Z" fill="#E4EBF7"/>
<path fill-rule="evenodd" clip-rule="evenodd" d="M235.708 178.007C234.101 180.555 235.152 183.594 238.054 184.795C240.959 185.994 244.615 184.902 246.221 182.355C247.829 179.807 246.778 176.769 243.876 175.569C240.972 174.368 237.316 175.46 235.708 178.007Z" fill="#FAAD14"/>
<path d="M288.94 158.659C289.159 158.643 289.353 158.774 289.373 158.951L289.504 160.194L289.601 161.195C289.666 161.878 289.73 162.594 289.791 163.331C289.908 164.753 290.006 166.144 290.078 167.47L290.111 168.128C290.256 171.151 290.246 173.577 290.041 175.198C289.827 176.889 288.78 179.683 287.098 183.3L286.933 183.652C286.605 184.35 286.258 185.07 285.894 185.808C285.164 187.286 284.393 188.785 283.614 190.254L282.696 191.965L281.817 193.559L281.749 193.673L275.048 214.008L276.248 219.981C276.276 220.122 276.186 220.259 276.033 220.321L275.964 220.343L275.431 220.461L275.297 220.489C274.753 220.604 274.113 220.732 273.382 220.87C271.294 221.264 268.891 221.658 266.205 222.025C253.28 223.793 238.993 224.329 224.293 222.888C224.102 222.869 223.955 222.743 223.943 222.588L223.84 221.588C223.717 220.481 223.493 218.585 223.188 216.06L222.146 207.538L221.686 203.818L221.435 203.488L221.136 203.085C220.981 202.873 220.817 202.645 220.645 202.403C219.828 201.248 219.011 199.999 218.248 198.7C217.218 196.946 216.368 195.238 215.76 193.626C215.206 192.157 214.866 190.8 214.771 189.579C214.529 186.482 214.837 184.039 215.747 181.527C216.231 180.191 216.884 178.82 217.847 177.077L218.239 176.378C218.447 176.015 218.737 175.514 219.059 174.961L221.468 170.845L221.307 165.631C221.302 165.472 221.439 165.338 221.624 165.307L221.695 165.3C221.891 165.296 222.057 165.407 222.096 165.557L222.104 165.614L222.268 170.906L222.23 171.052L219.102 176.407C218.963 176.647 218.85 176.847 218.77 176.99C217.713 178.878 217.016 180.317 216.512 181.709C215.629 184.146 215.331 186.514 215.567 189.538C215.657 190.704 215.985 192.013 216.523 193.438C217.118 195.016 217.954 196.696 218.968 198.423C219.722 199.706 220.529 200.941 221.337 202.082L221.666 202.541C221.772 202.687 221.874 202.827 221.972 202.959L222.41 203.536L222.471 203.677L224.291 218.579C224.457 219.97 224.58 221.037 224.656 221.732L224.714 222.278L225.385 222.342C239.319 223.624 252.865 223.131 265.194 221.507L266.072 221.389C268.519 221.054 270.729 220.698 272.676 220.339L273.201 220.242C273.804 220.128 274.345 220.021 274.819 219.922L275.402 219.798L274.248 214.043L274.256 213.908L281.001 193.455L281.652 192.281C281.804 192.003 281.964 191.71 282.13 191.403L282.298 191.091C283.271 189.283 284.245 187.41 285.153 185.569C285.516 184.834 285.861 184.117 286.187 183.423L286.649 182.425C288.133 179.173 289.056 176.651 289.248 175.132L289.294 174.719C289.442 173.216 289.446 171.101 289.331 168.524L289.314 168.153C289.241 166.638 289.132 165.027 288.995 163.374L288.902 162.289C288.871 161.934 288.839 161.585 288.806 161.244L288.579 159.01C288.559 158.832 288.721 158.675 288.94 158.659Z" fill="#4E5C93"/>
<path fill-rule="evenodd" clip-rule="evenodd" d="M267.289 226.478C286.353 226.478 296.944 280.212 310.097 300.471C308.229 304.383 299.26 310.767 299.26 310.767C299.26 310.767 299.666 314.054 299.924 316.031C289.722 321.397 271.192 323.127 271.192 323.127L270.77 325.882C240.399 334.011 203.169 320.17 203.169 320.17C203.169 320.17 202.531 319.507 203.35 317.391C190.256 316.072 164.06 300.048 164.06 300.048L167.697 294.637L139.484 265.634C139.484 265.634 194.398 238.751 210.094 231.051C224.218 224.121 221.746 223.047 221.746 223.047C221.746 223.047 247.69 226.478 267.289 226.478Z" fill="#122E3E"/>
<path d="M181.445 278.846C181.597 278.665 181.901 278.618 182.124 278.74C182.323 278.849 182.392 279.056 182.298 279.228L182.255 279.29L165.244 299.647L165.424 299.783L165.987 300.196L166.199 300.349C167.238 301.093 168.466 301.923 169.878 302.818C173.914 305.376 178.605 307.934 183.898 310.323C189.947 313.052 196.403 315.381 203.228 317.187C203.485 317.255 203.625 317.478 203.541 317.686C203.457 317.894 203.181 318.008 202.925 317.94C196.037 316.117 189.524 313.767 183.422 311.014C178.082 308.605 173.35 306.024 169.275 303.441C167.99 302.627 166.855 301.865 165.872 301.171L165.551 300.942C165.329 300.783 165.125 300.635 164.94 300.498L164.358 300.059C164.318 300.028 164.287 300.004 164.264 299.986C164.117 299.868 164.078 299.691 164.159 299.543L164.202 299.481L181.445 278.846Z" fill="#253368"/>
<path d="M281.984 263.825C282.217 263.771 282.46 263.865 282.559 264.038L282.587 264.098L300.82 316.365C300.884 316.547 300.779 316.741 300.57 316.826L300.37 316.907C300.23 316.962 300.044 317.034 299.813 317.122L299.264 317.328C298.786 317.505 298.258 317.694 297.683 317.894C295.386 318.691 292.807 319.488 290.006 320.232C283.896 321.854 277.606 322.993 271.372 323.435C271.103 323.454 270.865 323.293 270.842 323.075C270.818 322.858 271.017 322.666 271.286 322.646C277.44 322.21 283.657 321.084 289.701 319.479C292.474 318.743 295.026 317.955 297.298 317.166L297.956 316.935C298.274 316.822 298.574 316.713 298.856 316.608L299.646 316.31L299.767 316.262L281.646 264.313C281.58 264.124 281.696 263.928 281.909 263.847L281.984 263.825Z" fill="#253368"/>
<path d="M261.356 219.876C261.598 219.859 261.814 219.988 261.872 220.173L261.888 220.264L262.925 230.348C263.092 231.997 263.266 233.719 263.445 235.508L263.985 240.932C264.794 249.11 265.598 257.464 266.369 265.787L266.879 271.329C267.256 275.466 267.617 279.519 267.962 283.471L268.478 289.483C269.691 303.785 270.619 316.214 271.197 326.257C271.209 326.449 271.046 326.621 270.814 326.662C253.133 329.795 234.471 328.498 216.575 324.434C212.775 323.57 209.321 322.646 206.278 321.72L205.503 321.482C204.876 321.287 204.301 321.101 203.777 320.928L203.075 320.69L202.482 320.482C202.281 320.409 202.169 320.237 202.199 320.065L202.217 320.001L236.277 233.651C236.359 233.443 236.635 233.328 236.892 233.395C237.123 233.455 237.262 233.641 237.227 233.829L237.209 233.892L203.283 319.901L203.845 320.094L204.465 320.3C205.003 320.476 205.593 320.663 206.232 320.86L206.622 320.979C209.64 321.897 213.067 322.814 216.84 323.671C234.325 327.642 252.542 328.951 269.808 326.026L270.201 325.958L269.988 322.434C269.421 313.364 268.605 302.601 267.581 290.463L267.277 286.89L266.837 281.827C266.538 278.416 266.226 274.933 265.903 271.387L265.394 265.846C264.622 257.525 263.819 249.172 263.01 240.995L261.879 229.711L260.91 220.304C260.887 220.086 261.087 219.895 261.356 219.876Z" fill="#253368"/>
<path d="M249.501 220.323C249.743 220.335 249.935 220.487 249.96 220.677L249.961 220.741L244.931 293.426C244.916 293.644 244.685 293.812 244.415 293.8C244.172 293.788 243.981 293.636 243.956 293.446L243.954 293.382L248.985 220.697C249 220.479 249.231 220.312 249.501 220.323Z" fill="#253368"/>
<path d="M229.122 227.837C229.28 227.659 229.585 227.619 229.805 227.746C230 227.859 230.061 228.067 229.962 228.237L229.917 228.299L192.763 270.213C192.605 270.39 192.3 270.431 192.08 270.303C191.885 270.19 191.824 269.982 191.923 269.812L191.968 269.751L229.122 227.837Z" fill="#253368"/>
<path fill-rule="evenodd" clip-rule="evenodd" d="M181.032 241.74L241.41 239.227L184.452 219.757L134.196 225.816L181.032 241.74Z" fill="#253368"/>
<path fill-rule="evenodd" clip-rule="evenodd" d="M179.234 238.196L223.085 236.371L182.742 222.252L145.218 226.632L179.234 238.196Z" fill="#4E5C93"/>
<path fill-rule="evenodd" clip-rule="evenodd" d="M241.05 241.705L241.421 239.244L179.852 241.415L180.532 244.134L241.05 241.705Z" fill="#597EF7"/>
<path d="M174.221 223.741C174.274 223.653 174.394 223.61 174.507 223.631L174.563 223.647L207.185 236.633C207.311 236.684 207.364 236.808 207.301 236.911C207.248 236.999 207.128 237.042 207.015 237.021L206.959 237.005L174.337 224.018C174.211 223.968 174.158 223.844 174.221 223.741Z" fill="#CCD7EE"/>
<path d="M178.915 222.667C178.966 222.579 179.086 222.533 179.199 222.553L179.255 222.568L215.805 236.509C215.933 236.558 215.988 236.681 215.928 236.785C215.876 236.873 215.757 236.919 215.643 236.899L215.587 236.884L179.037 222.943C178.909 222.894 178.854 222.771 178.915 222.667Z" fill="#CCD7EE"/>
<path d="M173.383 226.195C173.438 226.108 173.559 226.066 173.671 226.088L173.727 226.105L201.073 237.376C201.199 237.428 201.249 237.552 201.185 237.654C201.13 237.742 201.009 237.784 200.896 237.761L200.841 237.745L173.495 226.474C173.369 226.422 173.319 226.297 173.383 226.195Z" fill="#CCD7EE"/>
<path d="M165.49 226.155C165.545 226.068 165.666 226.026 165.779 226.048L165.834 226.065L193.181 237.337C193.307 237.389 193.357 237.513 193.293 237.615C193.238 237.703 193.117 237.745 193.004 237.722L192.949 237.706L165.602 226.434C165.476 226.382 165.426 226.257 165.49 226.155Z" fill="#CCD7EE"/>
<path d="M158.148 226.53C158.203 226.443 158.324 226.401 158.437 226.423L158.492 226.44L185.838 237.711C185.964 237.763 186.014 237.887 185.95 237.989C185.895 238.077 185.774 238.119 185.662 238.096L185.606 238.08L158.26 226.809C158.134 226.757 158.084 226.632 158.148 226.53Z" fill="#CCD7EE"/>
<path d="M216.229 234.253C216.371 234.251 216.487 234.342 216.49 234.456C216.492 234.554 216.409 234.638 216.297 234.661L216.238 234.667L178.849 235.185C178.708 235.187 178.591 235.096 178.589 234.981C178.587 234.883 178.669 234.8 178.782 234.777L178.84 234.771L216.229 234.253Z" fill="#CCD7EE"/>
<path d="M208.348 231.213C208.489 231.211 208.606 231.302 208.608 231.416C208.61 231.514 208.528 231.598 208.415 231.621L208.357 231.627L170.969 232.146C170.828 232.148 170.711 232.057 170.709 231.942C170.707 231.844 170.789 231.761 170.902 231.738L170.96 231.732L208.348 231.213Z" fill="#CCD7EE"/>
<path d="M198.405 228.783C198.547 228.781 198.663 228.872 198.665 228.987C198.667 229.085 198.585 229.168 198.473 229.191L198.414 229.197L161.025 229.715C160.884 229.717 160.767 229.626 160.765 229.512C160.763 229.414 160.845 229.33 160.958 229.307L161.016 229.301L198.405 228.783Z" fill="#CCD7EE"/>
<path d="M192.083 224.059C192.224 224.057 192.341 224.148 192.343 224.263C192.345 224.361 192.263 224.444 192.15 224.467L192.092 224.473L154.703 224.992C154.562 224.994 154.445 224.903 154.443 224.788C154.441 224.69 154.523 224.607 154.636 224.584L154.694 224.578L192.083 224.059Z" fill="#CCD7EE"/>
<path fill-rule="evenodd" clip-rule="evenodd" d="M180.485 244.131L177.793 244.09L133.534 228.516L123.236 164.267L171.506 176.47L180.485 244.131Z" fill="#597EF7"/>
<path fill-rule="evenodd" clip-rule="evenodd" d="M177.697 244.085L131.02 227.679C130.595 227.529 130.295 227.208 130.235 226.835L120.255 165.084C120.13 164.308 121.042 163.688 121.964 163.923L167.745 175.551C168.246 175.679 168.607 176.034 168.664 176.458L177.697 244.085Z" fill="#253368"/>
<path fill-rule="evenodd" clip-rule="evenodd" d="M298.264 228.703L297.255 228.849C290.332 229.845 283.721 226.11 282.49 220.505L271.13 168.802C269.899 163.198 274.514 157.847 281.435 156.849L282.446 156.704C289.368 155.707 295.979 159.443 297.21 165.047L308.57 216.749C309.801 222.354 305.187 227.706 298.264 228.703Z" fill="#FFC999"/>
<path fill-rule="evenodd" clip-rule="evenodd" d="M302.102 187.308L296.809 163.223C295.534 157.416 288.622 153.511 281.45 154.543C274.279 155.577 269.454 161.172 270.729 166.978L275.972 190.836L302.102 187.308Z" fill="#BCBEC6"/>
<path d="M297.117 162.85C297.309 162.823 297.494 162.912 297.56 163.055L297.579 163.112L302.871 187.198C302.905 187.354 302.794 187.504 302.616 187.557L302.546 187.572L275.477 191.354C275.286 191.38 275.103 191.293 275.037 191.152L275.017 191.096L270.428 171.66C270.386 171.485 270.528 171.316 270.745 171.283C270.937 171.253 271.123 171.34 271.191 171.483L271.211 171.539L275.726 190.663L302.015 186.991L296.794 163.225C296.76 163.069 296.87 162.919 297.047 162.866L297.117 162.85Z" fill="#4E5C93"/>
<path fill-rule="evenodd" clip-rule="evenodd" d="M219.749 226.955C220.041 229.942 223.185 232.215 226.884 232.115L298.299 230.17C304.854 229.815 309.788 225.192 309.269 219.889C308.745 214.541 302.881 210.592 296.288 211.149L225.479 220.988C221.952 221.477 219.466 224.066 219.749 226.955Z" fill="#FFC999"/>
<path fill-rule="evenodd" clip-rule="evenodd" d="M233.37 231.766C228.371 234.933 212.185 233.674 212.185 233.674L201.752 238.414C200.13 239.02 199.678 238.143 198.86 238.177C196.651 238.271 196.531 236.394 196.531 236.394C195.751 236.133 194.555 236.656 194.115 234.972C194.115 234.972 192.564 234.947 192.355 233.433C192.246 232.633 201.567 220.622 201.567 220.622L216.604 220.322C216.604 220.322 238.559 219.732 241.275 223.612C243.99 227.492 233.37 231.766 233.37 231.766Z" fill="#FFC999"/>
<path d="M201.263 219.778L228.466 220.361C228.739 220.366 228.955 220.55 228.948 220.771C228.941 220.97 228.756 221.132 228.52 221.158L228.44 221.161L201.518 220.584L200.231 222.258L198.941 223.949C198.728 224.23 198.515 224.51 198.305 224.789L196.477 227.229C194.182 230.326 192.577 232.658 192.532 232.93L192.531 232.945C192.561 233.165 192.366 233.363 192.094 233.387C191.823 233.412 191.578 233.253 191.548 233.034C191.489 232.606 192.602 230.927 194.888 227.818L196.221 226.021C197.028 224.941 197.88 223.813 198.742 222.683L200.831 219.965C200.91 219.862 201.042 219.795 201.189 219.781L201.263 219.778Z" fill="#DD936F"/>
<path d="M207.064 223.445C207.312 223.353 207.606 223.441 207.72 223.642C207.822 223.823 207.744 224.034 207.546 224.141L207.476 224.173L201.954 226.222L194.526 235.195C194.389 235.36 194.127 235.416 193.91 235.336L193.84 235.304C193.636 235.194 193.566 234.981 193.665 234.806L193.704 234.749L201.21 225.683C201.248 225.636 201.298 225.598 201.355 225.568L201.415 225.541L207.064 223.445Z" fill="#DD936F"/>
<path d="M208.235 226.687C208.482 226.592 208.777 226.678 208.894 226.878C208.999 227.057 208.925 227.269 208.728 227.378L208.659 227.411L204.291 229.085L196.919 236.642C196.769 236.796 196.506 236.836 196.299 236.747L196.225 236.708C196.034 236.586 195.984 236.373 196.094 236.206L196.143 236.145L203.587 228.515C203.619 228.483 203.656 228.455 203.698 228.432L203.764 228.402L208.235 226.687Z" fill="#DD936F"/>
<path d="M212.684 228.411C212.925 228.306 213.225 228.379 213.355 228.573C213.471 228.749 213.41 228.963 213.221 229.081L213.154 229.116L207.104 231.753L199.477 238.195C199.309 238.337 199.043 238.357 198.847 238.252L198.777 238.207C198.602 238.071 198.577 237.855 198.707 237.697L198.763 237.641L206.443 231.154L206.565 231.079L212.684 228.411Z" fill="#DD936F"/>
<path d="M139.182 265.324C139.371 265.203 139.635 265.213 139.808 265.338L139.869 265.39L168.082 294.392C168.249 294.564 168.212 294.813 168 294.948C167.811 295.068 167.548 295.058 167.374 294.934L167.313 294.882L139.1 265.88C138.933 265.708 138.97 265.459 139.182 265.324Z" fill="#253368"/>
</svg>
