<svg width="530" height="895" viewBox="0 0 530 895" fill="none" xmlns="http://www.w3.org/2000/svg">
<path fill-rule="evenodd" clip-rule="evenodd" d="M344.619 728.634C351.488 727.888 356.46 723.873 355.884 717.816L343.547 586.868C342.659 577.533 333.108 570.721 322.525 571.872C311.94 573.023 304.569 581.675 306.299 590.918L331.865 720.596C332.987 726.596 337.749 729.382 344.619 728.634Z" fill="#FFC999"/>
<path fill-rule="evenodd" clip-rule="evenodd" d="M260.475 726.782C253.555 726.924 247.741 722.244 247.304 716.176L237.942 586.4C237.267 577.051 245.582 569.087 256.243 568.866C266.907 568.645 275.638 576.258 275.464 585.626L273.063 715.645C272.952 721.723 267.396 726.639 260.475 726.782Z" fill="#FFC999"/>
<path fill-rule="evenodd" clip-rule="evenodd" d="M252.995 447.65C240.432 447.909 230.575 457.202 231.17 468.228L237.56 586.764C238.052 595.894 246.75 603.011 257.154 602.795C267.557 602.58 275.864 595.112 275.866 585.973L275.9 467.303C275.903 456.265 265.559 447.391 252.995 447.65Z" fill="#FFC999"/>
<path fill-rule="evenodd" clip-rule="evenodd" d="M305.564 451.539C318.035 450.184 329.333 458.111 330.58 469.095L343.986 587.179C345.019 596.274 337.598 604.43 327.271 605.553C316.944 606.675 307.483 600.354 305.958 591.314L286.176 473.923C284.336 463.003 293.092 452.896 305.564 451.539Z" fill="#FFC999"/>
<path fill-rule="evenodd" clip-rule="evenodd" d="M245.194 731.54L271.921 731.845L272.637 774.86L212.414 774.174L212.364 767.57C212.355 765.143 214.329 763.059 217.047 762.624L233.095 758.677L241.369 754.665C243.862 753.456 245.394 751.148 245.355 748.647C245.275 743.274 245.149 734.157 245.194 731.54Z" fill="#4E5C93"/>
<path fill-rule="evenodd" clip-rule="evenodd" d="M359.764 731.008L333.042 731.535L337.917 774.556L398.129 773.366L398.107 766.763C398.09 764.336 396.093 762.268 393.371 761.856L377.28 758.043L368.964 754.099C366.458 752.911 364.256 750.491 363.359 748.116C361.7 743.725 359.839 733.623 359.764 731.008Z" fill="#4E5C93"/>
<path fill-rule="evenodd" clip-rule="evenodd" d="M247.597 732.898L271.907 733.175L273.775 699.418L245.864 699.1L247.597 732.898Z" fill="#597EF7"/>
<path fill-rule="evenodd" clip-rule="evenodd" d="M359.395 732.386L333.536 732.865L326.679 699.126L354.585 698.575L359.395 732.386Z" fill="#597EF7"/>
<path d="M246.075 705.14C245.634 705.135 245.272 705.445 245.266 705.832C245.261 706.187 245.557 706.484 245.946 706.535L246.054 706.542L271.821 706.835C272.262 706.84 272.624 706.531 272.63 706.144C272.635 705.789 272.339 705.492 271.95 705.441L271.842 705.434L246.075 705.14Z" fill="#E4EBF7"/>
<path d="M212.115 767.488C211.889 767.486 211.704 767.644 211.701 767.842C211.699 768.016 211.836 768.162 212.022 768.197L212.104 768.206L272.144 768.89C272.369 768.893 272.554 768.734 272.557 768.536C272.56 768.363 272.422 768.217 272.237 768.181L272.154 768.173L212.115 767.488Z" fill="#A3B5D6"/>
<path d="M354.406 704.616L328.643 705.125C328.203 705.134 327.854 705.455 327.863 705.842C327.873 706.196 328.18 706.484 328.571 706.522L328.679 706.527L354.442 706.018C354.883 706.009 355.232 705.688 355.222 705.301C355.213 704.947 354.905 704.659 354.515 704.621L354.406 704.616Z" fill="#E4EBF7"/>
<path d="M398.356 766.678L338.325 767.864C338.1 767.868 337.921 768.032 337.926 768.23C337.931 768.404 338.074 768.545 338.261 768.575L338.344 768.581L398.374 767.396C398.599 767.391 398.778 767.227 398.773 767.029C398.769 766.856 398.625 766.714 398.438 766.684L398.356 766.678Z" fill="#A3B5D6"/>
<path fill-rule="evenodd" clip-rule="evenodd" d="M212.11 767.847C212.165 764.12 215.291 760.977 219.488 760.432L233.096 758.658L233.857 767.964L212.11 767.847Z" fill="#E4EBF7"/>
<path fill-rule="evenodd" clip-rule="evenodd" d="M272.035 776.255L211.996 775.572C211.426 775.565 210.971 775.155 210.978 774.654L211.066 768.741C211.073 768.24 211.541 767.841 212.11 767.847L272.149 768.531C272.718 768.538 273.173 768.948 273.167 769.449L273.079 775.362C273.071 775.861 272.605 776.262 272.035 776.255Z" fill="#E4EBF7"/>
<path d="M245.806 746.473C245.366 746.387 244.929 746.63 244.83 747.016C244.732 747.403 245.008 747.787 245.449 747.873L245.677 747.924L245.765 747.946C246.033 748.012 246.333 748.095 246.657 748.197C247.584 748.487 248.51 748.862 249.37 749.33C249.714 749.518 250.04 749.716 250.345 749.925L250.466 750.011L250.438 750.015C250.119 750.053 249.78 750.099 249.422 750.152L248.682 750.269C248.177 750.352 247.651 750.446 247.108 750.55C246.608 750.645 246.112 750.745 245.628 750.846L244.183 751.16C244.11 751.177 244.048 751.191 243.998 751.203C243.305 751.365 243.169 752.176 243.779 752.506L243.854 752.549C243.903 752.577 243.969 752.617 244.05 752.667C244.282 752.81 244.543 752.984 244.824 753.187C245.403 753.603 245.983 754.079 246.543 754.613L246.621 754.689L246.46 754.689C246.162 754.69 245.856 754.698 245.541 754.71L245.063 754.732C243.729 754.805 242.31 754.963 240.87 755.181C240.338 755.261 239.829 755.346 239.351 755.431L238.411 755.609C238.28 755.635 238.177 755.657 238.104 755.673C237.242 755.858 237.289 756.949 238.164 757.077C238.304 757.097 238.583 757.159 238.954 757.278C239.582 757.48 240.212 757.77 240.797 758.162C241.376 758.549 241.88 759.018 242.291 759.575C242.537 759.908 243.042 760.003 243.421 759.787C243.799 759.572 243.907 759.128 243.662 758.795C243.145 758.094 242.511 757.506 241.788 757.021C241.622 756.91 241.456 756.807 241.291 756.711L241.099 756.601L241.147 756.595C242.302 756.42 243.441 756.286 244.522 756.206L245.164 756.164C246.361 756.099 247.428 756.11 248.325 756.208C249.035 756.286 249.507 755.581 249.085 755.073C248.886 754.834 248.68 754.601 248.469 754.373C247.757 753.61 247.003 752.938 246.241 752.359L246.067 752.229L246.724 752.094L247.454 751.952C247.983 751.851 248.495 751.759 248.983 751.679L249.623 751.578C250.759 751.407 251.68 751.316 252.307 751.323C253.003 751.331 253.391 750.621 252.948 750.15C252.212 749.365 251.292 748.689 250.231 748.111C249.264 747.585 248.235 747.167 247.205 746.845L246.766 746.713C246.354 746.595 246.025 746.516 245.806 746.473Z" fill="#E4EBF7"/>
<path d="M245.725 740.141L246.121 740.147C246.249 740.151 246.39 740.155 246.543 740.161L246.783 740.172C247.398 740.201 248.063 740.247 248.766 740.316C250.695 740.504 252.616 740.825 254.427 741.311C259.607 742.701 263.036 745.182 263.71 749.039C264.142 751.512 262.905 752.753 260.551 752.413C258.913 752.176 256.699 751.19 253.995 749.611C253.189 749.141 252.352 748.624 251.491 748.069C250.032 747.128 248.574 746.121 247.184 745.115L246.356 744.51L245.37 743.769C245.252 743.704 244.981 743.514 244.705 743.268C244.237 742.852 243.925 742.421 243.858 741.935C243.749 741.14 244.34 740.521 245.451 740.181C245.539 740.154 245.631 740.141 245.725 740.141ZM245.864 741.577C245.696 741.636 245.585 741.693 245.52 741.742L245.483 741.773L245.48 741.764C245.493 741.86 245.632 742.051 245.868 742.261C246.059 742.431 246.255 742.568 246.371 742.638L247.669 743.604C247.847 743.734 248.031 743.869 248.223 744.008C249.591 744.999 251.026 745.989 252.458 746.912C253.299 747.455 254.116 747.959 254.899 748.416C257.42 749.888 259.475 750.803 260.816 750.997C262.012 751.17 262.367 750.814 262.095 749.256C261.537 746.058 258.594 743.929 253.95 742.683C252.245 742.226 250.42 741.921 248.586 741.742C247.645 741.65 246.833 741.602 246.203 741.584L245.864 741.577Z" fill="#E4EBF7"/>
<path fill-rule="evenodd" clip-rule="evenodd" d="M338.533 775.945L398.563 774.76C399.131 774.749 399.583 774.334 399.571 773.834L399.419 767.922C399.406 767.421 398.934 767.026 398.364 767.037L338.336 768.222C337.766 768.234 337.316 768.647 337.328 769.148L337.48 775.061C337.493 775.56 337.965 775.956 338.533 775.945Z" fill="#E4EBF7"/>
<path fill-rule="evenodd" clip-rule="evenodd" d="M398.364 767.037C398.27 763.31 395.11 760.195 390.905 759.682L377.28 758.022L376.62 767.336L398.364 767.037Z" fill="#E4EBF7"/>
<path d="M365.42 746.481C365.317 746.095 364.877 745.856 364.438 745.946L364.186 746.003C363.9 746.072 363.512 746.178 363.052 746.327C362.032 746.655 361.012 747.078 360.054 747.608C358.99 748.198 358.069 748.885 357.336 749.682C356.899 750.157 357.294 750.864 357.99 750.85C358.731 750.835 359.887 750.954 361.323 751.179C361.823 751.257 362.349 751.347 362.892 751.446L363.614 751.581L364.241 751.703L364.081 751.824C363.457 752.307 362.837 752.854 362.243 753.463L361.89 753.837C361.67 754.076 361.458 754.321 361.253 754.573C360.836 755.084 361.316 755.785 362.025 755.702C362.925 755.596 363.997 755.576 365.202 755.632C366.278 755.682 367.42 755.79 368.586 755.942L369.257 756.034L369.089 756.129L368.844 756.279L368.599 756.44C367.869 756.934 367.232 757.534 366.716 758.249C366.474 758.584 366.587 759.027 366.968 759.239C367.349 759.451 367.854 759.352 368.095 759.017C368.506 758.449 369.013 757.971 369.597 757.576C370.174 757.184 370.796 756.893 371.416 756.689C371.782 756.569 372.057 756.505 372.195 756.484C373.069 756.348 373.104 755.258 372.24 755.079L371.653 754.966L371.483 754.935C370.892 754.829 370.242 754.722 369.552 754.623C368.089 754.412 366.645 754.262 365.288 754.199C364.802 754.176 364.333 754.165 363.884 754.167L363.714 754.168L363.812 754.07C364.253 753.643 364.706 753.253 365.161 752.9L365.503 752.643C365.711 752.491 365.907 752.355 366.088 752.236L366.457 752.004C366.489 751.985 366.514 751.971 366.531 751.962C367.137 751.626 366.992 750.816 366.298 750.66L365.394 750.466C364.7 750.321 363.966 750.176 363.224 750.041C362.667 749.939 362.126 749.847 361.609 749.766C361.097 749.686 360.618 749.619 360.174 749.565L359.817 749.523L359.948 749.428C360.152 749.286 360.365 749.149 360.587 749.017L360.926 748.822C361.777 748.35 362.695 747.969 363.614 747.674C363.854 747.596 364.082 747.529 364.293 747.472L364.66 747.377C364.73 747.36 364.78 747.349 364.811 747.343C365.25 747.252 365.523 746.866 365.42 746.481Z" fill="#E4EBF7"/>
<path d="M364.457 739.613C364.548 739.612 364.639 739.625 364.726 739.651C365.865 739.989 366.462 740.625 366.331 741.438C366.255 741.908 365.951 742.328 365.502 742.734C365.23 742.981 364.962 743.171 364.769 743.29L364.732 743.322C364.67 743.374 364.532 743.48 364.356 743.615L363.6 744.186C363.421 744.321 363.234 744.46 363.04 744.603C361.655 745.625 360.203 746.647 358.751 747.602C357.893 748.166 357.06 748.69 356.258 749.167C353.577 750.763 351.379 751.762 349.748 752.01C347.403 752.365 346.159 751.133 346.563 748.66C347.188 744.836 350.534 742.336 355.62 740.895C357.557 740.347 359.623 739.99 361.687 739.785C362.264 739.728 362.809 739.686 363.312 739.657L363.682 739.638C364.047 739.621 364.311 739.614 364.457 739.613ZM364.327 741.05L364.075 741.058L363.769 741.07C363.197 741.097 362.558 741.142 361.87 741.211C359.906 741.405 357.944 741.745 356.122 742.261C351.565 743.551 348.698 745.694 348.18 748.864C347.925 750.422 348.283 750.776 349.47 750.596C350.804 750.394 352.843 749.466 355.342 747.979C356.121 747.516 356.934 747.004 357.772 746.453C358.912 745.703 360.055 744.91 361.164 744.107L361.989 743.504C362.275 743.293 362.546 743.091 362.8 742.9L363.756 742.167C363.948 742.043 364.141 741.906 364.33 741.735L364.422 741.647C364.567 741.503 364.663 741.374 364.699 741.285L364.711 741.243C364.664 741.194 364.542 741.124 364.327 741.05Z" fill="#E4EBF7"/>
<path fill-rule="evenodd" clip-rule="evenodd" d="M218.437 264.071C218.437 264.071 202.206 259.618 195.005 274.428C177.967 277.309 179.547 293.353 179.547 293.353C179.547 293.353 169.253 304.336 184.187 312.801C183.21 325.399 199.688 325.399 199.688 325.399C199.688 325.399 201.795 335.535 214.725 333.3C226.26 344.15 251.414 345.833 262.234 336.069C277.626 349.985 310.589 340.271 308.679 329.274C329.29 331.056 342.651 313.429 333.631 295.595C345.147 284.11 336.048 275.097 336.048 275.097C336.048 275.097 344.285 246.155 321.871 238.953C312.862 221.479 284.845 230.567 284.845 230.567C284.845 230.567 268.381 225.069 259.911 237.193C240.413 237.09 239.632 246.403 236.764 253.91C219.58 252.365 218.437 264.071 218.437 264.071Z" fill="#18191A"/>
<path fill-rule="evenodd" clip-rule="evenodd" d="M273.848 257.159C286.815 261.091 292.486 252.792 292.486 252.792C292.486 252.792 300.266 241.077 300.279 248.944C300.287 253.124 308.445 248.724 310.951 253.531C312.637 256.766 306.403 259.753 312.193 268.561C315.548 273.663 298.414 274.951 307.064 284.702C307.064 284.702 297.984 293.846 309.797 298.904L308.943 311.001C308.446 318.04 301.144 323.168 293.214 322.043C285.655 320.971 280.598 314.626 282.036 308.019L285.185 293.566C265.906 290.858 269.204 267.453 273.848 257.159Z" fill="#FFC999"/>
<path fill-rule="evenodd" clip-rule="evenodd" d="M162.549 311.944L152.767 281.581C152.767 281.581 136.746 256.944 130.96 258.459C125.586 260.525 137.734 267.577 140.142 274.538C135.027 274.216 137.35 280.899 137.35 280.899C137.35 280.899 133.279 280.769 134.373 286.213C130.592 288.178 133.623 294.427 133.623 294.427C133.623 294.427 141.219 310.887 149.635 321.865C149.635 321.865 163.597 331.335 162.549 311.944Z" fill="#FFC999"/>
<path fill-rule="evenodd" clip-rule="evenodd" d="M160.376 301.685C160.376 301.685 158.916 291.271 157.825 285.967C156.733 280.662 159.284 271.082 154.879 273.62C151.918 275.327 152.434 281.026 152.541 285.229C152.646 289.431 144.918 299.392 150.677 306.287C154.569 310.947 160.703 311.558 160.376 301.685Z" fill="#FFC999"/>
<path fill-rule="evenodd" clip-rule="evenodd" d="M151.394 309.877C155.405 307.535 160.804 308.379 163.649 311.793L218.569 377.679C223.389 383.88 221.508 392.345 214.387 396.501C207.204 400.691 197.501 398.863 192.91 392.452L148.455 320.229C146.239 316.63 147.514 312.142 151.394 309.877Z" fill="#FFC999"/>
<path d="M296.188 273.003C295.907 272.662 295.366 272.586 294.978 272.833L294.869 272.898C294.796 272.939 294.697 272.993 294.572 273.057C294.215 273.24 293.799 273.424 293.33 273.596C291.156 274.396 288.722 274.66 286.159 274.072C285.696 273.966 285.223 274.21 285.102 274.617C284.981 275.023 285.258 275.439 285.721 275.545C288.687 276.225 291.499 275.919 293.999 275C294.931 274.657 295.61 274.31 295.994 274.065C296.382 273.819 296.469 273.343 296.188 273.003Z" fill="#F5222D"/>
<path d="M296.775 260.957C296.321 260.894 295.893 261.166 295.821 261.565C295.316 264.344 297.282 266.954 300.258 267.373C303.232 267.79 306.029 265.848 306.534 263.07C306.606 262.67 306.297 262.295 305.842 262.231C305.387 262.167 304.96 262.439 304.887 262.839C304.523 264.844 302.553 266.212 300.521 265.927C298.488 265.64 297.103 263.802 297.467 261.796C297.54 261.397 297.23 261.021 296.775 260.957Z" fill="#253368"/>
<path d="M275.912 258.535C275.48 258.475 275.075 258.733 275.006 259.111C274.505 261.857 276.231 264.431 278.952 264.813C281.673 265.195 284.227 263.223 284.728 260.478C284.797 260.099 284.503 259.743 284.072 259.682C283.64 259.621 283.234 259.879 283.165 260.258C282.793 262.297 280.987 263.691 279.202 263.441C277.417 263.19 276.196 261.37 276.568 259.331C276.637 258.952 276.343 258.596 275.912 258.535Z" fill="#253368"/>
<path d="M305.465 253.582C302.728 252.65 299.839 252.605 297.153 253.08L296.721 253.162C296.32 253.243 296.014 253.32 295.818 253.378C295.381 253.508 295.148 253.924 295.296 254.307C295.444 254.69 295.917 254.895 296.353 254.766L296.537 254.715C296.755 254.659 297.076 254.588 297.483 254.516C299.884 254.091 302.465 254.132 304.863 254.948C305.98 255.328 307.014 255.868 307.95 256.585C308.297 256.851 308.824 256.819 309.126 256.514C309.429 256.209 309.393 255.747 309.046 255.481C307.961 254.65 306.76 254.022 305.465 253.582Z" fill="#253368"/>
<path fill-rule="evenodd" clip-rule="evenodd" d="M196.351 395.353C189.267 391.016 187.53 382.457 192.469 376.235L240.588 315.617C245.528 309.397 255.271 307.87 262.355 312.206C269.437 316.543 271.174 325.102 266.236 331.324L218.116 391.942C213.178 398.163 203.435 399.689 196.351 395.353Z" fill="#FFC999"/>
<path d="M266.89 331.195C266.691 331.073 266.426 331.097 266.26 331.242L266.202 331.302L246.09 356.638L221.04 340.944C220.843 340.821 220.577 340.843 220.41 340.986L220.352 341.045C220.211 341.219 220.236 341.452 220.399 341.599L220.467 341.65L245.922 357.6C246.121 357.724 246.389 357.701 246.556 357.555L246.614 357.495L267.012 331.798C267.168 331.602 267.113 331.332 266.89 331.195Z" fill="#4E5C93"/>
<path fill-rule="evenodd" clip-rule="evenodd" d="M245.838 357.021L266.237 331.323C271.155 325.129 269.408 316.526 262.354 312.207C255.301 307.888 245.507 309.422 240.589 315.618L220.384 341.07L245.838 357.021Z" fill="#BCBEC6"/>
<path fill-rule="evenodd" clip-rule="evenodd" d="M252.698 334.471C249.358 340.862 243.171 351.865 242.402 359.134C241.154 370.92 249.889 379.689 249.889 379.689C249.889 379.689 249.978 376.224 250.825 406.757C290.843 412.923 316.357 406.367 316.357 406.367L315.578 398.273L322.076 379.141C322.076 379.141 326.024 372.015 334.137 356.12C339.777 345.07 339.386 331.371 338.622 324.046C338.294 320.908 339.991 314.356 336.446 313.867C324.402 312.203 316.043 311.307 316.043 311.307L314.578 307.351C314.382 306.153 313.214 305.264 311.837 305.264H280.869C279.605 305.264 278.503 306.015 278.189 307.091L276.019 311.307L259.698 311.818C256.839 312.311 254.367 320.177 254.069 322.722L252.698 334.471Z" fill="#BCBEC6"/>
<path d="M316.436 312.388C316.184 312.212 315.829 312.228 315.598 312.412L315.526 312.48L287.566 343.443L276.715 314.56C276.614 314.292 276.308 314.134 276 314.176L275.897 314.198C275.592 314.287 275.412 314.556 275.46 314.827L275.485 314.917L286.712 344.802C286.862 345.203 287.43 345.317 287.766 345.042L287.834 344.977L316.541 313.187C316.763 312.94 316.716 312.583 316.436 312.388Z" fill="#CCD7EE"/>
<path fill-rule="evenodd" clip-rule="evenodd" d="M279.312 347.028C276.375 351.379 277.699 356.835 282.269 359.216C286.838 361.596 292.925 359.998 295.861 355.647C298.799 351.295 297.476 345.839 292.905 343.459C288.335 341.079 282.25 342.678 279.312 347.028Z" fill="#CCD7EE"/>
<path fill-rule="evenodd" clip-rule="evenodd" d="M278.257 347.007C275.319 351.357 276.644 356.814 281.213 359.193C285.783 361.574 291.87 359.976 294.807 355.624C297.744 351.274 296.421 345.817 291.85 343.438C287.281 341.058 281.195 342.656 278.257 347.007Z" fill="#E4EBF7"/>
<path fill-rule="evenodd" clip-rule="evenodd" d="M280.122 347.765C277.841 351.143 278.869 355.378 282.418 357.226C285.966 359.074 290.691 357.835 292.971 354.457C295.252 351.078 294.225 346.843 290.676 344.995C287.128 343.145 282.403 344.386 280.122 347.765Z" fill="#FAAD14"/>
<path d="M338.608 323.612C338.335 323.619 338.12 323.819 338.128 324.058L338.171 325.782L338.178 326.112C338.245 329.547 338.252 333.178 338.16 336.575L338.131 337.553C338.008 341.24 337.767 344.203 337.389 346.196C336.96 348.455 335.312 352.295 332.758 357.242C332.312 358.107 331.842 358.997 331.351 359.91C329.999 362.423 328.549 364.991 327.1 367.474L326.367 368.721L325.19 370.696L325.135 370.794L314.64 398.277L314.617 398.457L315.511 406.433L314.734 406.567C314.512 406.604 314.277 406.642 314.028 406.682L313.644 406.742C311.767 407.034 309.591 407.325 307.143 407.598C290.429 409.457 271.511 409.466 252.022 406.412L251.228 406.285L251.161 404.066C251.112 402.613 251.037 400.617 250.941 398.156L250.557 388.641L250.223 380.634L250.161 380.44L249.922 380.05L249.54 379.406C249.432 379.221 249.319 379.026 249.203 378.823L249.027 378.511C248.173 376.996 247.319 375.352 246.523 373.64C245.39 371.205 244.469 368.834 243.835 366.608C243.222 364.456 242.896 362.498 242.896 360.78C242.896 356.481 243.545 353.182 245.001 349.779C245.73 348.075 246.667 346.316 248.016 344.071L248.687 342.973C249.594 341.512 251.345 338.738 252.359 337.134L253.131 335.912L253.191 335.72L253.504 328.458C253.514 328.218 253.301 328.017 253.029 328.008C252.787 328 252.578 328.146 252.528 328.347L252.517 328.425L252.21 335.583L248.164 342.005L247.42 343.207L246.873 344.117C245.649 346.181 244.773 347.848 244.077 349.474C242.577 352.977 241.908 356.38 241.908 360.78C241.908 362.576 242.246 364.602 242.877 366.819C243.523 369.089 244.459 371.497 245.608 373.968C246.299 375.453 247.033 376.887 247.772 378.231L248.142 378.896C248.323 379.218 248.497 379.521 248.661 379.802L249.241 380.769L250.048 400.637C250.167 403.762 250.236 405.815 250.244 406.529L250.245 406.648C250.245 406.857 250.414 407.036 250.648 407.074C270.668 410.337 290.118 410.366 307.267 408.458C309.485 408.211 311.482 407.949 313.239 407.684L313.816 407.596C314.214 407.534 314.582 407.475 314.918 407.419L316.151 407.202C316.365 407.161 316.518 407.003 316.537 406.817L316.536 406.736L315.611 398.463L326.039 371.137L326.573 370.25C326.997 369.541 327.47 368.742 327.979 367.87C329.432 365.379 330.886 362.803 332.244 360.28L332.967 358.923C333.085 358.699 333.202 358.477 333.317 358.257L333.658 357.6C336.247 352.584 337.915 348.697 338.363 346.338C338.784 344.121 339.035 340.776 339.148 336.595C339.226 333.672 339.232 330.579 339.19 327.585L339.152 325.45L339.115 324.034C339.108 323.794 338.88 323.606 338.608 323.612Z" fill="#4E5C93"/>
<path fill-rule="evenodd" clip-rule="evenodd" d="M368.077 405.577L368.522 405.425C376.448 402.723 380.377 394.889 377.302 387.928L347.953 321.535C344.876 314.574 335.955 311.122 328.03 313.825L327.585 313.977C319.659 316.68 315.729 324.513 318.807 331.475L348.154 397.866C351.231 404.828 360.152 408.28 368.077 405.577Z" fill="#FFC999"/>
<path fill-rule="evenodd" clip-rule="evenodd" d="M315.73 412.841C329.79 413.807 371.251 490.881 383.858 518.785C382.18 524.405 363.836 535.283 363.836 535.283C363.836 535.283 364.932 539.756 365.609 542.444C353.611 551.11 330.407 555.818 330.407 555.818L330.355 559.663C293.256 574.667 243.576 560.287 243.576 560.287C243.576 560.287 242.649 559.454 243.314 556.439C226.47 556.267 190.401 537.497 190.401 537.497L195.528 528.211L180.694 514.875C180.694 514.875 220.754 450.148 233.084 432.042C243.91 416.149 254.063 411.572 254.063 411.572C254.063 411.572 290.784 411.125 315.73 412.841Z" fill="#122E3E"/>
<path fill-rule="evenodd" clip-rule="evenodd" d="M251.377 412.839L252.436 405.78C252.436 405.78 284.168 405.947 315.289 404.578C316.075 407.711 316.979 413.351 316.979 413.351C314.362 411.463 286.093 416.976 251.377 412.839Z" fill="#122E3E"/>
<path d="M252.535 426.605C252.256 426.485 251.925 426.565 251.75 426.78L251.699 426.857L190.473 536.713C190.343 536.946 190.416 537.227 190.649 537.386L191.033 537.642L191.66 538.046C191.813 538.144 191.975 538.246 192.147 538.353C193.37 539.115 194.808 539.964 196.454 540.877C201.152 543.485 206.57 546.091 212.636 548.524C222.065 552.305 232.183 555.309 242.871 557.248C243.209 557.31 243.54 557.119 243.61 556.822C243.68 556.525 243.462 556.235 243.124 556.173C232.533 554.252 222.502 551.273 213.155 547.525C207.142 545.114 201.774 542.531 197.122 539.949C195.676 539.147 194.393 538.396 193.28 537.711L192.625 537.304L191.823 536.789L252.821 427.34C252.958 427.094 252.868 426.804 252.622 426.651L252.535 426.605Z" fill="#253368"/>
<path d="M326.618 449.42C326.496 449.136 326.136 448.993 325.813 449.1C325.522 449.197 325.361 449.463 325.421 449.722L325.449 449.808L365.462 542.776L364.805 543.133L364.009 543.554C363.317 543.915 362.552 544.303 361.719 544.711C358.383 546.345 354.645 547.98 350.594 549.506C343.992 551.993 337.217 553.941 330.441 555.144C330.102 555.204 329.884 555.494 329.952 555.791C330.02 556.088 330.35 556.28 330.688 556.22C337.556 555.001 344.41 553.03 351.087 550.515C355.179 548.973 358.956 547.322 362.328 545.67C363.34 545.174 364.254 544.708 365.062 544.281L365.9 543.83L366.569 543.458C366.787 543.333 366.89 543.104 366.838 542.886L366.811 542.805L326.618 449.42Z" fill="#253368"/>
<path d="M299.8 414.916L299.699 414.928C299.394 414.981 299.186 415.221 299.196 415.485L299.213 415.597L301.607 426.212C302.432 429.886 303.311 433.821 304.235 437.977L304.743 440.266C308.598 457.633 312.453 475.318 316.087 492.42L316.921 496.356C317.365 498.454 317.803 500.533 318.235 502.59L320.548 513.682C323.957 530.155 326.848 544.724 329.115 556.949L329.648 559.839L328.793 560.088C327.888 560.347 326.978 560.596 326.062 560.834L324.684 561.186C302.434 566.719 278.654 566.405 256.196 562.55C252.633 561.938 249.419 561.283 246.607 560.628L245.795 560.436C245.403 560.342 245.035 560.251 244.689 560.164L243.675 559.902L271.536 437.252C271.597 436.985 271.425 436.724 271.143 436.631L271.045 436.606C270.741 436.553 270.444 436.704 270.338 436.951L270.31 437.037L242.338 560.173C242.276 560.447 242.457 560.718 242.758 560.803L243.674 561.049L244.344 561.22C244.812 561.337 245.32 561.461 245.868 561.591L246.287 561.689C249.124 562.35 252.365 563.011 255.957 563.627C278.59 567.513 302.558 567.829 325.025 562.242C326.888 561.778 328.73 561.276 330.549 560.732C330.837 560.646 331.013 560.39 330.965 560.126L330.189 555.916C327.946 543.862 325.109 529.582 321.778 513.486L320.32 506.478C319.614 503.096 318.89 499.653 318.15 496.156C314.551 479.145 310.714 461.483 306.86 444.07L303.52 429.064L300.434 415.359C300.373 415.091 300.1 414.908 299.8 414.916Z" fill="#253368"/>
<path d="M284.806 417.032C284.495 417.017 284.225 417.203 284.16 417.461L284.146 417.55L277.572 519.959C277.553 520.262 277.816 520.521 278.161 520.539C278.471 520.553 278.741 520.367 278.806 520.109L278.82 520.021L285.394 417.611C285.414 417.309 285.15 417.049 284.806 417.032Z" fill="#253368"/>
<path d="M268.099 414.413C267.802 414.332 267.489 414.455 267.354 414.691L267.316 414.774L242.633 484.572C242.53 484.861 242.714 485.169 243.044 485.259C243.341 485.34 243.654 485.217 243.788 484.98L243.826 484.897L268.51 415.1C268.612 414.81 268.428 414.503 268.099 414.413Z" fill="#253368"/>
<path d="M313.638 412.802C299.632 413.377 286.036 413.636 273.932 413.635L269.803 413.624C265.537 413.602 261.769 413.545 258.893 413.467L257.525 413.425C257.107 413.411 256.73 413.397 256.398 413.383L255.73 413.351C255.506 413.339 255.323 413.327 255.182 413.316L255.015 413.3L254.943 413.276C254.851 413.251 254.752 413.244 254.653 413.259L254.554 413.281L254.475 413.29C254.324 413.314 254.307 413.399 254.178 414.043L254.435 414.278C254.513 414.343 254.535 414.344 254.592 414.348C254.64 414.36 254.692 414.37 254.754 414.378L254.856 414.39C254.942 414.399 255.052 414.408 255.185 414.418L255.653 414.446C256.253 414.479 257.099 414.512 258.135 414.543L260.287 414.6C263.113 414.664 266.602 414.709 270.474 414.725L271.161 414.728C283.962 414.772 298.591 414.519 313.696 413.898C314.041 413.884 314.308 413.627 314.292 413.324C314.275 413.022 313.983 412.788 313.638 412.802Z" fill="#253368"/>
<path fill-rule="evenodd" clip-rule="evenodd" d="M330.525 357.985L317.616 328.782C314.504 321.742 318.516 313.746 326.532 311.013C334.547 308.28 343.65 311.803 346.764 318.842L359.549 347.769L330.525 357.985Z" fill="#AEB6CD"/>
<path d="M280.989 314.274C280.716 314.274 280.495 314.468 280.495 314.708C280.495 314.921 280.67 315.098 280.9 315.134L280.989 315.141H307.475C307.748 315.141 307.969 314.947 307.969 314.708C307.969 314.495 307.794 314.318 307.564 314.281L307.475 314.274H280.989Z" fill="#4E5C93"/>
<path d="M317.656 328.769C317.557 328.546 317.271 328.435 317.017 328.522C316.791 328.599 316.666 328.806 316.711 329.008L316.735 329.083L329.645 358.285C329.733 358.485 329.972 358.595 330.203 358.554L330.289 358.531L359.312 348.315C359.566 348.226 359.689 347.973 359.587 347.751C359.497 347.553 359.26 347.446 359.03 347.487L358.945 347.51L330.385 357.562L317.656 328.769Z" fill="#4E5C93"/>
<path fill-rule="evenodd" clip-rule="evenodd" d="M286.757 407.655L261.151 346.325C260.728 345.315 259.616 344.653 258.391 344.685L194.908 346.276C192.936 346.325 191.616 348.076 192.332 349.691L218.854 409.331C219.28 410.291 220.332 410.923 221.505 410.924L284.075 411.021C286.06 411.024 287.44 409.29 286.757 407.655Z" fill="#4E5C93"/>
<path fill-rule="evenodd" clip-rule="evenodd" d="M283.376 407.021L258.216 346.76C257.705 345.535 256.36 344.736 254.876 344.773L190.606 346.385C189.228 346.419 188.304 347.642 188.807 348.771L215.694 409.238C216.166 410.3 217.331 411 218.629 411.003L280.129 411.097C282.531 411.101 284.204 409.002 283.376 407.021Z" fill="#253368"/>
<path fill-rule="evenodd" clip-rule="evenodd" d="M249.7 350.86C249.015 351.589 249.332 352.812 250.409 353.592C251.485 354.373 252.912 354.416 253.597 353.687C254.282 352.959 253.965 351.736 252.889 350.956C251.811 350.174 250.384 350.132 249.7 350.86Z" fill="#4E5C93"/>
<path fill-rule="evenodd" clip-rule="evenodd" d="M250.587 351.562C250.231 351.94 250.396 352.576 250.955 352.981C251.514 353.386 252.256 353.409 252.61 353.031C252.965 352.652 252.801 352.016 252.242 351.611C251.684 351.206 250.942 351.184 250.587 351.562Z" fill="#FFC999"/>
<path fill-rule="evenodd" clip-rule="evenodd" d="M262.554 406.736C263.235 410.923 267.547 413.899 272.341 413.491L364.877 405.613C373.354 404.642 379.293 397.774 378.082 390.342C376.861 382.843 368.846 377.703 360.343 378.962L269.392 397.917C264.858 398.862 261.894 402.686 262.554 406.736Z" fill="#FFC999"/>
<path fill-rule="evenodd" clip-rule="evenodd" d="M262.538 416.612C262.538 416.612 283.772 414.721 286.503 406.417C288.977 398.898 280.733 395.826 280.733 395.826C280.733 395.826 273.089 391.634 263.208 390.187C256.697 389.235 244.106 388.526 243.075 391.462C241.729 395.29 256.032 395.364 256.059 398.28C256.085 401.271 253.129 401.448 246.558 403.793C242.449 405.26 239.889 404.35 236.676 406.176C230.397 409.745 237.783 420.358 262.538 416.612Z" fill="#FFC999"/>
<path d="M287.795 259.845C287.491 259.821 287.22 259.996 287.147 260.247L287.104 260.486C287.089 260.556 287.066 260.647 287.035 260.756C286.925 261.136 286.751 261.579 286.498 262.077C285.763 263.524 284.534 265.112 282.692 266.788C282.449 267.009 282.465 267.364 282.729 267.566L283.526 268.173C284.688 269.051 285.702 269.779 286.569 270.368L287.182 270.778L287.815 271.18C287.831 271.19 287.845 271.198 287.856 271.204C288.137 271.37 288.518 271.304 288.706 271.057C288.895 270.81 288.819 270.476 288.538 270.311L288.245 270.128L287.913 269.914C287.794 269.836 287.666 269.752 287.53 269.66L287.319 269.518C286.563 269.003 285.69 268.38 284.7 267.639L284.015 267.122L284.271 266.877C285.721 265.458 286.764 264.093 287.462 262.81L287.617 262.516C288.104 261.557 288.309 260.842 288.351 260.428C288.381 260.132 288.132 259.871 287.795 259.845Z" fill="#DD936F"/>
<path d="M298.052 292.42C297.939 292.14 297.589 291.993 297.27 292.092C293.206 293.354 289.162 293.707 285.259 293.207C284.924 293.164 284.613 293.367 284.565 293.661C284.516 293.956 284.747 294.229 285.082 294.272C289.183 294.797 293.427 294.426 297.679 293.106C297.998 293.007 298.165 292.7 298.052 292.42Z" fill="#DD936F"/>
<path d="M139.72 274.148C139.475 274.353 139.465 274.693 139.698 274.909L139.982 275.177L140.345 275.53C140.472 275.656 140.604 275.788 140.742 275.927C141.528 276.722 142.315 277.572 143.048 278.441C143.774 279.302 144.408 280.135 144.922 280.921C146.674 283.601 146.82 285.312 145.153 285.922C144.841 286.037 144.693 286.352 144.824 286.626C144.954 286.9 145.313 287.03 145.625 286.916C148.263 285.949 148.06 283.558 145.984 280.385C145.444 279.56 144.785 278.693 144.033 277.801C143.279 276.907 142.473 276.036 141.667 275.221L141.068 274.627L140.586 274.167C140.353 273.952 139.965 273.943 139.72 274.148Z" fill="#DD936F"/>
<path d="M137.348 280.773C137.143 281.009 137.193 281.346 137.462 281.527L137.76 281.734L138.142 282.005C138.275 282.102 138.415 282.204 138.56 282.311C139.388 282.924 140.217 283.581 140.988 284.255C141.809 284.973 142.516 285.666 143.073 286.318C144.559 288.054 144.791 289.199 143.728 289.771C143.286 290.009 142.787 290.062 142.213 289.944C141.373 289.773 140.424 289.247 139.454 288.477C139.014 288.127 138.599 287.751 138.224 287.375L137.938 287.08C137.86 286.997 137.799 286.93 137.758 286.883C137.553 286.646 137.169 286.601 136.9 286.781C136.631 286.961 136.579 287.298 136.784 287.535L136.989 287.76C137.076 287.853 137.181 287.962 137.303 288.084C137.707 288.49 138.154 288.895 138.632 289.275C139.743 290.157 140.852 290.771 141.935 290.992C142.808 291.171 143.635 291.083 144.369 290.688C146.282 289.658 145.916 287.849 144.052 285.671C143.456 284.974 142.711 284.243 141.852 283.492C141.055 282.796 140.202 282.119 139.35 281.488L138.919 281.173L138.207 280.673C137.939 280.493 137.554 280.537 137.348 280.773Z" fill="#DD936F"/>
<path d="M135.832 286.079C135.498 286.032 135.184 286.233 135.132 286.526C135.079 286.82 135.307 287.095 135.641 287.141C136.461 287.255 137.508 287.905 138.761 289.2C141.393 291.92 141.938 293.67 141.155 294.072C140.345 294.488 138.423 293.719 137.187 292.167C136.751 291.619 135.795 292.122 136.139 292.719C137.677 295.385 139.481 297.244 141.723 298.689L142.282 299.037C143.221 299.61 143.565 299.773 146.156 300.974L146.762 301.261C150.279 302.97 151.699 304.472 152.511 308.029C152.578 308.32 152.901 308.509 153.232 308.45C153.564 308.392 153.779 308.108 153.712 307.817C152.795 303.802 151.076 302.082 147.043 300.17L144.677 299.064C143.775 298.632 143.458 298.448 142.765 298.021C141.422 297.196 140.247 296.228 139.193 295.014L139.152 294.964L139.303 295.019C140.153 295.302 140.979 295.34 141.627 295.069L141.774 295.001C143.52 294.104 142.763 291.675 139.694 288.504C138.27 287.031 136.996 286.24 135.832 286.079Z" fill="#DD936F"/>
<path d="M152.458 279.439C152.154 279.417 151.884 279.593 151.813 279.845L151.797 279.931L151.054 287.81L150.824 288.167L150.654 288.445C150.302 289.03 149.951 289.682 149.624 290.384C148.672 292.422 148.104 294.467 148.116 296.395C148.125 297.901 148.494 299.274 149.275 300.475C149.442 300.733 149.816 300.823 150.11 300.676C150.404 300.528 150.506 300.2 150.338 299.942C149.669 298.912 149.349 297.719 149.341 296.39C149.33 294.624 149.861 292.71 150.757 290.792C151.007 290.257 151.271 289.753 151.537 289.289L151.737 288.948C151.936 288.616 152.09 288.382 152.174 288.262C152.208 288.214 152.233 288.162 152.248 288.107L152.263 288.024L153.018 280.02C153.046 279.724 152.795 279.464 152.458 279.439Z" fill="#DD936F"/>
<path d="M255.355 405.913C255.153 405.674 254.769 405.625 254.498 405.803L254.34 405.901C254.149 406.015 253.86 406.177 253.475 406.372C252.61 406.813 251.589 407.254 250.418 407.667C246.373 409.093 241.633 409.823 236.28 409.478C235.943 409.456 235.649 409.679 235.624 409.975C235.6 410.271 235.853 410.529 236.191 410.551C241.738 410.909 246.663 410.151 250.874 408.666C252.101 408.233 253.175 407.769 254.09 407.303C254.331 407.18 254.549 407.064 254.743 406.955L254.929 406.848C255.074 406.764 255.175 406.701 255.229 406.665C255.501 406.488 255.557 406.151 255.355 405.913Z" fill="#DD936F"/>
<path d="M258.495 410.597C258.351 410.328 257.987 410.212 257.68 410.338C257.375 410.464 257.066 410.584 256.754 410.7C252.052 412.443 247.136 412.975 242.997 412.823L242.523 412.803C242.25 412.789 242.062 412.776 241.968 412.767C241.632 412.736 241.331 412.951 241.296 413.246C241.261 413.542 241.505 413.806 241.841 413.837L242.19 413.862C242.268 413.867 242.356 413.872 242.454 413.877C246.859 414.096 252.147 413.576 257.23 411.691C257.557 411.57 257.88 411.444 258.2 411.313C258.506 411.187 258.638 410.867 258.495 410.597Z" fill="#DD936F"/>
<path d="M263.761 413.267C263.587 413.012 263.211 412.93 262.921 413.084L262.782 413.152C262.611 413.233 262.345 413.348 261.98 413.488C261.155 413.806 260.145 414.125 258.947 414.424C256.304 415.083 253.144 415.545 249.445 415.722C249.107 415.739 248.848 415.992 248.866 416.289C248.885 416.586 249.173 416.813 249.511 416.797C253.301 416.615 256.551 416.14 259.281 415.459C260.534 415.147 261.596 414.811 262.472 414.474C263.007 414.268 263.365 414.105 263.553 414.005C263.842 413.852 263.936 413.522 263.761 413.267Z" fill="#DD936F"/>
</svg>
